<?xml version="1.0" standalone="no"?>
<!DOCTYPE svg PUBLIC "-//W3C//DTD SVG 20010904//EN"
 "http://www.w3.org/TR/2001/REC-SVG-20010904/DTD/svg10.dtd">
<svg version="1.0" xmlns="http://www.w3.org/2000/svg"
 width="4500.000000pt" height="1042.000000pt" viewBox="0 0 4500.000000 1042.000000"
 preserveAspectRatio="xMidYMid meet">

<g transform="translate(0.000000,1042.000000) scale(0.100000,-0.100000)"
fill="#000000" stroke="none">
<path d="M3985 8701 c-52 -23 -122 -103 -132 -150 -5 -20 -8 -1588 -8 -3486 0
-3304 1 -3452 18 -3497 22 -56 77 -109 140 -133 41 -16 90 -17 579 -14 l533 4
49 25 c78 39 107 83 117 177 4 43 8 1615 8 3493 l1 3415 -24 51 c-24 51 -61
86 -123 118 -28 14 -94 16 -575 16 -505 0 -546 -2 -583 -19z"/>
<path d="M39845 8701 c-52 -24 -93 -65 -119 -121 l-21 -45 3 -3474 c3 -3118 5
-3477 19 -3505 22 -43 62 -85 103 -106 32 -17 83 -19 580 -25 l545 -8 51 22
c60 26 106 70 131 126 16 38 18 216 21 3497 l4 3457 -25 53 c-26 57 -64 100
-112 126 -27 15 -90 17 -585 19 -522 3 -557 2 -595 -16z"/>
<path d="M2583 8031 c-126 -6 -133 -7 -175 -36 -24 -17 -58 -55 -75 -85 l-33
-54 0 -2771 c0 -2659 1 -2772 19 -2810 27 -60 66 -101 123 -129 l52 -26 485 0
c467 0 488 1 531 21 55 25 105 71 133 124 l21 40 0 2775 1 2775 -22 40 c-28
52 -78 100 -128 121 -36 16 -83 18 -420 20 -209 0 -439 -2 -512 -5z"/>
<path d="M6455 8030 c-6 -10 -109 -658 -121 -760 -5 -48 -4 -60 7 -60 8 0 84
17 169 37 154 36 157 36 416 40 l260 4 47 -48 47 -48 0 -2351 0 -2351 -46
-177 c-25 -98 -42 -181 -39 -185 9 -8 892 -8 900 1 4 4 -11 82 -34 172 l-41
166 0 2368 0 2368 43 42 43 42 224 0 225 0 198 -41 c108 -23 200 -40 203 -36
3 3 -24 187 -61 410 l-68 404 -375 6 c-583 11 -1990 9 -1997 -3z"/>
<path d="M9398 8033 c-71 -2 -128 -7 -128 -11 0 -4 20 -85 45 -180 l45 -174 0
-2595 0 -2596 -45 -169 c-25 -93 -45 -174 -45 -179 0 -5 187 -9 455 -9 250 0
455 3 455 8 0 4 -20 85 -45 180 l-45 174 0 1066 0 1066 42 43 42 43 121 0 120
0 29 -36 c28 -36 30 -44 184 -1114 l155 -1079 -29 -168 -30 -168 101 -8 c55
-4 260 -6 456 -5 l355 3 -57 190 c-58 189 -58 192 -153 850 -53 363 -125 858
-160 1100 l-64 440 189 190 189 191 0 1291 0 1291 -192 186 -193 186 -835 -2
c-459 -1 -892 -4 -962 -5z m1395 -789 l47 -46 0 -831 0 -832 -46 -47 -46 -48
-284 0 -284 0 -45 41 -45 42 0 842 0 842 45 42 45 41 282 0 283 0 48 -46z"/>
<path d="M13019 8033 l-156 -3 38 -166 37 -165 -98 -577 c-100 -585 -360
-2101 -450 -2622 -27 -157 -104 -602 -170 -990 -157 -916 -147 -868 -238
-1141 l-80 -236 76 -7 c41 -3 245 -6 454 -6 313 0 378 2 378 14 0 7 -11 63
-25 124 l-25 112 94 567 95 568 50 48 50 47 321 0 321 0 49 -46 c27 -25 52
-54 54 -63 6 -18 61 -333 141 -803 l54 -316 -28 -119 -28 -118 51 -7 c62 -7
866 -10 866 -3 0 3 -39 117 -86 253 -98 279 -73 161 -278 1342 -108 625 -288
1658 -566 3258 -66 382 -120 704 -120 716 0 12 16 92 35 176 19 85 32 156 29
159 -6 7 -611 9 -845 4z m435 -2548 c42 -242 100 -582 130 -755 l55 -315 -34
-32 -35 -33 -208 0 -208 0 -29 30 -29 30 123 718 c68 394 128 744 134 777 8
46 12 55 18 40 4 -11 42 -218 83 -460z"/>
<path d="M15188 8033 c-32 -2 -58 -7 -58 -11 0 -4 20 -85 45 -180 l45 -174 0
-2594 0 -2594 -45 -171 c-25 -94 -45 -175 -45 -180 0 -5 193 -9 455 -9 250 0
455 3 455 8 0 4 -20 84 -45 177 l-45 170 0 2595 0 2595 45 175 c25 96 45 181
45 188 0 9 -85 12 -397 10 -219 -1 -424 -3 -455 -5z"/>
<path d="M16583 8032 c-46 -2 -83 -6 -83 -10 0 -4 20 -85 45 -180 l45 -174 0
-2595 0 -2596 -45 -169 c-25 -93 -45 -174 -45 -179 0 -5 187 -9 455 -9 250 0
455 3 455 8 0 4 -20 85 -45 180 l-45 174 2 1549 3 1550 154 -583 c336 -1274
469 -1776 610 -2313 l148 -560 350 -3 c192 -1 379 1 415 5 l66 8 -44 160 -44
160 0 2612 0 2612 44 173 45 173 -107 8 c-120 9 -797 5 -807 -4 -3 -4 15 -88
40 -187 l45 -181 0 -1537 c0 -846 -2 -1535 -5 -1532 -4 4 -528 1975 -806 3033
-56 215 -105 393 -108 397 -6 7 -593 15 -738 10z"/>
<path d="M21206 8032 c-4 -7 -59 -346 -130 -799 -2 -15 2 -23 11 -23 7 0 97
18 199 40 l186 40 232 0 232 0 47 -48 47 -48 0 -2352 0 -2353 -46 -175 c-25
-97 -43 -179 -39 -182 9 -10 892 -9 901 0 4 4 -12 81 -34 171 l-42 163 0 2370
0 2370 43 42 43 42 224 0 225 0 197 -42 c109 -23 200 -39 204 -36 3 4 -24 188
-61 411 l-68 404 -390 6 c-553 10 -1975 9 -1981 -1z"/>
<path d="M24251 7854 l-191 -186 0 -2591 1 -2592 188 -183 189 -182 739 0 738
0 183 183 182 182 0 2590 0 2590 -188 188 -187 187 -731 0 -731 0 -192 -186z
m1237 -607 l42 -43 0 -2132 0 -2131 -42 -40 -43 -40 -280 -1 -279 0 -43 42
-43 42 0 2126 0 2125 45 48 44 47 279 0 278 0 42 -43z"/>
<path d="M28548 8033 c-32 -2 -58 -7 -58 -11 0 -4 20 -86 45 -182 l45 -175 0
-2590 0 -2590 -45 -170 c-25 -93 -45 -176 -45 -182 0 -10 98 -13 455 -13 269
0 455 4 455 9 0 5 -20 87 -45 183 l-45 173 0 602 0 602 134 321 c73 177 136
324 140 327 3 4 8 4 11 1 9 -9 638 -1933 637 -1950 0 -9 -12 -68 -26 -131 -14
-63 -26 -120 -26 -127 0 -10 103 -11 528 -6 290 5 529 9 531 11 2 2 -62 88
-141 192 -79 103 -151 199 -160 213 -8 14 -226 655 -483 1425 l-468 1400 106
255 c58 140 168 406 245 590 76 184 237 572 357 862 l219 528 168 212 167 213
-275 3 c-152 1 -396 1 -543 0 l-267 -3 24 -101 24 -102 -207 -508 c-212 -519
-277 -680 -541 -1324 l-149 -365 -3 1020 -2 1019 45 177 c25 97 45 182 45 188
0 8 -110 10 -397 9 -219 -1 -424 -3 -455 -5z"/>
<path d="M32479 8031 l-155 -6 37 -160 38 -160 -169 -990 c-157 -918 -279
-1627 -350 -2040 -16 -93 -79 -460 -140 -815 -236 -1372 -202 -1204 -296
-1484 -46 -137 -84 -251 -84 -253 0 -2 205 -3 455 -3 378 0 455 2 455 14 0 7
-11 63 -25 124 l-25 112 94 567 95 568 50 48 50 47 324 0 324 0 50 -52 49 -53
33 -190 c18 -104 62 -358 96 -562 l64 -373 -30 -120 c-16 -67 -29 -123 -29
-126 0 -2 208 -4 461 -4 435 0 461 1 456 18 -3 9 -42 123 -87 252 -47 135 -90
277 -100 335 -11 55 -80 451 -154 880 -189 1089 -445 2563 -588 3385 -135 778
-128 691 -74 924 14 61 23 112 20 115 -8 8 -652 9 -845 2z m487 -2848 l133
-768 -34 -32 -35 -33 -208 0 -208 0 -29 30 -29 30 83 477 c45 263 104 606 131
763 27 157 50 291 50 299 1 57 29 -92 146 -766z"/>
<path d="M34653 8033 c-35 -2 -63 -7 -63 -11 0 -4 20 -85 45 -180 l45 -174 0
-2595 0 -2596 -45 -169 c-25 -93 -45 -174 -45 -179 0 -5 187 -9 455 -9 250 0
455 3 455 8 0 4 -20 81 -45 172 l-45 165 0 2600 0 2600 46 178 c25 99 42 182
39 186 -7 7 -744 11 -842 4z"/>
<path d="M36033 8032 c-40 -2 -73 -6 -73 -10 0 -4 20 -85 45 -180 l45 -174 0
-2595 0 -2596 -45 -169 c-25 -93 -45 -174 -45 -179 0 -5 187 -9 455 -9 262 0
455 4 455 9 0 5 -20 86 -45 180 l-45 171 2 1551 3 1551 37 -138 c20 -77 129
-490 242 -919 113 -429 302 -1144 420 -1590 l213 -810 324 -3 c178 -2 365 0
415 3 l92 7 -44 170 -44 170 0 2601 0 2602 44 175 44 175 -106 8 c-118 9 -797
5 -807 -4 -3 -3 15 -88 40 -189 l45 -183 0 -1535 c0 -845 -2 -1533 -4 -1531
-5 5 -145 527 -421 1574 -92 347 -218 826 -281 1065 -64 239 -136 514 -161
610 -25 96 -49 178 -52 182 -6 7 -621 15 -748 10z"/>
<path d="M41620 8021 c-75 -5 -125 -13 -145 -23 -44 -24 -91 -77 -114 -128
-21 -45 -21 -51 -20 -2550 1 -1378 4 -2630 8 -2782 l6 -276 30 -43 c17 -24 53
-57 80 -74 l48 -30 501 0 c276 0 514 4 529 8 38 10 114 82 140 132 l22 40 -3
2710 c-1 1491 -5 2747 -8 2793 -5 73 -10 88 -37 125 -21 27 -53 53 -92 72
l-60 30 -385 1 c-212 1 -437 -1 -500 -5z"/>
<path d="M1043 7241 c-75 -7 -134 -45 -175 -111 l-28 -45 -2 -1995 c-3 -1804
-1 -1998 13 -2030 25 -54 67 -99 120 -125 l48 -25 443 0 c266 0 457 4 479 10
49 14 119 77 147 132 l22 45 0 1982 0 1982 -24 47 c-29 56 -65 92 -123 121
-41 20 -54 21 -450 19 -224 0 -436 -4 -470 -7z"/>
<path d="M43045 7222 c-57 -27 -102 -68 -128 -116 l-22 -41 0 -1990 c0 -1094
4 -2003 8 -2018 11 -40 85 -117 133 -138 38 -17 78 -19 480 -20 305 -1 452 2
482 10 52 14 104 59 140 120 l27 46 0 1985 0 1985 -29 58 c-21 45 -40 66 -80
92 l-51 33 -460 6 c-437 6 -462 6 -500 -12z"/>
</g>
</svg>
